name Walk1.mot
datacolumns 19
datarows 22
range 2.15000000 2.17100000
endheader

                time	   L_ground_force_vx	   L_ground_force_vy	   L_ground_force_vz	   L_ground_force_px	   L_ground_force_py	   L_ground_force_pz	   R_ground_force_vx	   R_ground_force_vy	   R_ground_force_vz	   R_ground_force_px	   R_ground_force_py	   R_ground_force_pz	   L_ground_torque_x	   L_ground_torque_y	   L_ground_torque_z	   R_ground_torque_x	   R_ground_torque_y	   R_ground_torque_z	
          2.15000000	        -24.30600209	        544.22235718	        -32.54055691	          0.12786118	          0.00000000	          0.09617382	          0.00000000	          0.00000000	          0.00000000	          0.00000000	          0.00000000	          0.00000000	          0.00000000	          0.34369867	          0.00000000	          0.00000000	          0.00000000	          0.00000000	
          2.15100000	        -23.83659313	        542.95595892	        -32.58938192	          0.12792923	          0.00000000	          0.09618579	          0.00000000	          0.00000000	          0.00000000	          0.00000000	          0.00000000	          0.00000000	          0.00000000	          0.35541607	          0.00000000	          0.00000000	          0.00000000	          0.00000000	
          2.15200000	        -23.39325433	        541.82528384	        -32.58147921	          0.12802064	          0.00000000	          0.09632750	          0.00000000	          0.00000000	          0.00000000	          0.00000000	          0.00000000	          0.00000000	          0.00000000	          0.36874415	          0.00000000	          0.00000000	          0.00000000	          0.00000000	
          2.15300000	        -22.97459286	        540.83782512	        -32.50280009	          0.12822869	          0.00000000	          0.09657534	          0.00000000	          0.00000000	          0.00000000	          0.00000000	          0.00000000	          0.00000000	          0.00000000	          0.37890717	          0.00000000	          0.00000000	          0.00000000	          0.00000000	
          2.15400000	        -22.57128903	        539.94572609	        -32.38556652	          0.12856717	          0.00000000	          0.09684383	          0.00000000	          0.00000000	          0.00000000	          0.00000000	          0.00000000	          0.00000000	          0.00000000	          0.38126482	          0.00000000	          0.00000000	          0.00000000	          0.00000000	
          2.15500000	        -22.17493992	        539.08384522	        -32.27360107	          0.12897517	          0.00000000	          0.09706036	          0.00000000	          0.00000000	          0.00000000	          0.00000000	          0.00000000	          0.00000000	          0.00000000	          0.37289538	          0.00000000	          0.00000000	          0.00000000	          0.00000000	
          2.15600000	        -21.77954305	        538.19688360	        -32.18977702	          0.12938277	          0.00000000	          0.09720560	          0.00000000	          0.00000000	          0.00000000	          0.00000000	          0.00000000	          0.00000000	          0.00000000	          0.35754156	          0.00000000	          0.00000000	          0.00000000	          0.00000000	
          2.15700000	        -21.37879956	        537.23504283	        -32.13866545	          0.12975397	          0.00000000	          0.09729213	          0.00000000	          0.00000000	          0.00000000	          0.00000000	          0.00000000	          0.00000000	          0.00000000	          0.34654332	          0.00000000	          0.00000000	          0.00000000	          0.00000000	
          2.15800000	        -20.96738920	        536.16843713	        -32.11268898	          0.13008965	          0.00000000	          0.09733903	          0.00000000	          0.00000000	          0.00000000	          0.00000000	          0.00000000	          0.00000000	          0.00000000	          0.34926923	          0.00000000	          0.00000000	          0.00000000	          0.00000000	
          2.15900000	        -20.54538715	        535.02602757	        -32.09540564	          0.13041364	          0.00000000	          0.09737370	          0.00000000	          0.00000000	          0.00000000	          0.00000000	          0.00000000	          0.00000000	          0.00000000	          0.36463201	          0.00000000	          0.00000000	          0.00000000	          0.00000000	
          2.16000000	        -20.11631650	        533.89294123	        -32.07165355	          0.13074399	          0.00000000	          0.09743571	          0.00000000	          0.00000000	          0.00000000	          0.00000000	          0.00000000	          0.00000000	          0.00000000	          0.38580595	          0.00000000	          0.00000000	          0.00000000	          0.00000000	
          2.16100000	        -19.68036592	        532.86043284	        -32.03742065	          0.13107053	          0.00000000	          0.09756610	          0.00000000	          0.00000000	          0.00000000	          0.00000000	          0.00000000	          0.00000000	          0.00000000	          0.40848769	          0.00000000	          0.00000000	          0.00000000	          0.00000000	
          2.16200000	        -19.23691794	        531.97453305	        -31.99981695	          0.13137677	          0.00000000	          0.09777924	          0.00000000	          0.00000000	          0.00000000	          0.00000000	          0.00000000	          0.00000000	          0.00000000	          0.43014138	          0.00000000	          0.00000000	          0.00000000	          0.00000000	
          2.16300000	        -18.79247514	        531.20841987	        -31.96694529	          0.13166927	          0.00000000	          0.09803630	          0.00000000	          0.00000000	          0.00000000	          0.00000000	          0.00000000	          0.00000000	          0.00000000	          0.44750309	          0.00000000	          0.00000000	          0.00000000	          0.00000000	
          2.16400000	        -18.35876847	        530.48071950	        -31.94056442	          0.13195772	          0.00000000	          0.09826214	          0.00000000	          0.00000000	          0.00000000	          0.00000000	          0.00000000	          0.00000000	          0.00000000	          0.45905176	          0.00000000	          0.00000000	          0.00000000	          0.00000000	
          2.16500000	        -17.94418149	        529.70803655	        -31.91670387	          0.13222999	          0.00000000	          0.09839937	          0.00000000	          0.00000000	          0.00000000	          0.00000000	          0.00000000	          0.00000000	          0.00000000	          0.46618063	          0.00000000	          0.00000000	          0.00000000	          0.00000000	
          2.16600000	        -17.54631846	        528.84217137	        -31.88563921	          0.13246684	          0.00000000	          0.09843905	          0.00000000	          0.00000000	          0.00000000	          0.00000000	          0.00000000	          0.00000000	          0.00000000	          0.47184016	          0.00000000	          0.00000000	          0.00000000	          0.00000000	
          2.16700000	        -17.14992090	        527.87556541	        -31.83467231	          0.13265262	          0.00000000	          0.09841287	          0.00000000	          0.00000000	          0.00000000	          0.00000000	          0.00000000	          0.00000000	          0.00000000	          0.48061756	          0.00000000	          0.00000000	          0.00000000	          0.00000000	
          2.16800000	        -16.73713734	        526.84216913	        -31.75838609	          0.13278507	          0.00000000	          0.09837535	          0.00000000	          0.00000000	          0.00000000	          0.00000000	          0.00000000	          0.00000000	          0.00000000	          0.49669501	          0.00000000	          0.00000000	          0.00000000	          0.00000000	
          2.16900000	        -16.30050549	        525.81411582	        -31.66034122	          0.13290116	          0.00000000	          0.09837671	          0.00000000	          0.00000000	          0.00000000	          0.00000000	          0.00000000	          0.00000000	          0.00000000	          0.51864667	          0.00000000	          0.00000000	          0.00000000	          0.00000000	
          2.17000000	        -15.84145444	        524.87194718	        -31.54290677	          0.13305953	          0.00000000	          0.09843895	          0.00000000	          0.00000000	          0.00000000	          0.00000000	          0.00000000	          0.00000000	          0.00000000	          0.54045954	          0.00000000	          0.00000000	          0.00000000	          0.00000000	
          2.17100000	        -15.36171673	        524.06095437	        -31.40788916	          0.13328580	          0.00000000	          0.09855683	          0.00000000	          0.00000000	          0.00000000	          0.00000000	          0.00000000	          0.00000000	          0.00000000	          0.55915640	          0.00000000	          0.00000000	          0.00000000	          0.00000000	
